<?xml version="1.0" encoding="utf-8"?>
<!-- Generator: Adobe Illustrator 16.0.0, SVG Export Plug-In . SVG Version: 6.00 Build 0)  -->
<!DOCTYPE svg PUBLIC "-//W3C//DTD SVG 1.1//EN" "http://www.w3.org/Graphics/SVG/1.1/DTD/svg11.dtd">
<svg version="1.1" id="Layer_1" xmlns="http://www.w3.org/2000/svg" xmlns:xlink="http://www.w3.org/1999/xlink" x="0px" y="0px"
	 width="2048px" height="582px" viewBox="0 0 2048 582" enable-background="new 0 0 2048 582" xml:space="preserve">
<g>
	<rect fill="#FFFFFF" width="2048" height="582"/>
	<g id="Group_35" transform="translate(-17 -240)">
		<g id="Group_34" transform="translate(16.78 239.875)">
			
				<linearGradient id="Path_3536_1_" gradientUnits="userSpaceOnUse" x1="-0.6794" y1="910.3584" x2="0.0817" y2="910.995" gradientTransform="matrix(299.029 0 0 -102.2286 264.1838 93231.6563)">
				<stop  offset="0" style="stop-color:#4277B2"/>
				<stop  offset="0.13" style="stop-color:#4883BD"/>
				<stop  offset="0.45" style="stop-color:#559BD3"/>
				<stop  offset="0.75" style="stop-color:#60A9DD"/>
				<stop  offset="1" style="stop-color:#63ADE0"/>
			</linearGradient>
			<path id="Path_3536" fill="url(#Path_3536_1_)" d="M355.639,133.951L332.18,82.502c-1.754-3.661-6.046-5.334-9.815-3.829
				l-35.163,13.806L172.764,81.424L80.22,171.973l134.124,0.378l80.192-66.82l26.639-10.463l20.493,44.925
				c0.11,0.131,0.201,0.275,0.271,0.431c3.372-3.789,8.195-5.965,13.267-5.986h0.646
				C355.797,134.27,355.726,134.105,355.639,133.951z"/>
			
				<linearGradient id="Path_3537_1_" gradientUnits="userSpaceOnUse" x1="-12.5378" y1="909.2178" x2="-11.789" y2="909.7206" gradientTransform="matrix(41.481 0 0 -40.1984 862.8754 36726.3984)">
				<stop  offset="0" style="stop-color:#4277B2"/>
				<stop  offset="0.13" style="stop-color:#4883BD"/>
				<stop  offset="0.45" style="stop-color:#559BD3"/>
				<stop  offset="0.75" style="stop-color:#60A9DD"/>
				<stop  offset="1" style="stop-color:#63ADE0"/>
			</linearGradient>
			<path id="Path_3537" fill="url(#Path_3537_1_)" d="M362.384,146.517h-0.645c-5.57-0.034-10.882,2.347-14.564,6.525
				c-2.974,3.268-4.661,7.502-4.746,11.919c0.058,10.334,8.482,18.664,18.816,18.606c0.038,0,0.076,0,0.114-0.002
				c10.42,0.18,19.037-8.076,19.306-18.494C380.637,154.941,372.512,146.693,362.384,146.517z"/>
			
				<linearGradient id="Path_3538_1_" gradientUnits="userSpaceOnUse" x1="-2.5232" y1="910.4941" x2="-1.3746" y2="911.0606" gradientTransform="matrix(151.01 0 0 -95.72 522.8729 87363.5313)">
				<stop  offset="0" style="stop-color:#4277B2"/>
				<stop  offset="0.13" style="stop-color:#4883BD"/>
				<stop  offset="0.45" style="stop-color:#559BD3"/>
				<stop  offset="0.75" style="stop-color:#60A9DD"/>
				<stop  offset="1" style="stop-color:#63ADE0"/>
			</linearGradient>
			<path id="Path_3538" fill="url(#Path_3538_1_)" d="M152.217,187.881l18.877,41.959l120.316-48.97l-16.717-39.261l-52.853,44.115
				L152.217,187.881z"/>
			
				<linearGradient id="Path_3539_1_" gradientUnits="userSpaceOnUse" x1="-4.7517" y1="908.6689" x2="-2.4493" y2="910.9161" gradientTransform="matrix(98.821 0 0 -27.967 669.9169 25927.5273)">
				<stop  offset="0" style="stop-color:#4277B2"/>
				<stop  offset="0.13" style="stop-color:#4883BD"/>
				<stop  offset="0.45" style="stop-color:#559BD3"/>
				<stop  offset="0.75" style="stop-color:#60A9DD"/>
				<stop  offset="1" style="stop-color:#63ADE0"/>
			</linearGradient>
			<path id="Path_3539" fill="url(#Path_3539_1_)" d="M255.116,502.129h31.819c13.753,0,33.221-7.174,33.221-21.248v-4.531
				l-91.088,17.475C236.691,499.203,245.786,502.104,255.116,502.129z"/>
			
				<linearGradient id="Path_3540_1_" gradientUnits="userSpaceOnUse" x1="-4.32" y1="909.5742" x2="-2.1849" y2="911.1643" gradientTransform="matrix(106.602 0 0 -39.551 652.6426 36461.8203)">
				<stop  offset="0" style="stop-color:#4277B2"/>
				<stop  offset="0.13" style="stop-color:#4883BD"/>
				<stop  offset="0.45" style="stop-color:#559BD3"/>
				<stop  offset="0.75" style="stop-color:#60A9DD"/>
				<stop  offset="1" style="stop-color:#63ADE0"/>
			</linearGradient>
			<path id="Path_3540" fill="url(#Path_3540_1_)" d="M221.895,480.361c0,1.111,0.145,2.215,0.431,3.287l97.829-18.98v-17.475
				l-98.26,19.035V480.361z"/>
			
				<linearGradient id="Exclusion_3_1_" gradientUnits="userSpaceOnUse" x1="-1.0559" y1="911.25" x2="-0.1249" y2="911.4786" gradientTransform="matrix(244.2948 0 0 -274.522 416.1003 250517.9375)">
				<stop  offset="0" style="stop-color:#4277B2"/>
				<stop  offset="0.13" style="stop-color:#4883BD"/>
				<stop  offset="0.45" style="stop-color:#559BD3"/>
				<stop  offset="0.75" style="stop-color:#60A9DD"/>
				<stop  offset="1" style="stop-color:#63ADE0"/>
			</linearGradient>
			<path id="Exclusion_3" fill="url(#Exclusion_3_1_)" d="M221.893,453.947L221.893,453.947v-29.123
				c-39.593-21.328-64.054-62.893-63.475-107.859c-0.137-24.74,7.091-48.958,20.763-69.572l120.857-46.486
				c11.952,3.391,23.232,8.813,33.347,16.025c10.175,7.246,19.111,16.091,26.462,26.19c7.572,10.377,13.458,21.883,17.441,34.096
				c4.188,12.833,6.311,26.249,6.288,39.749c0.577,44.955-23.858,86.508-63.422,107.859v10.031l-98.259,19.09H221.893z
				 M270.97,401.775L270.97,401.775l8.737,6.361l-2.103-11.217l7.603-5.771h-10.731l-3.502-10.41l-3.503,10.355h-10.737l7.55,5.826
				l-2.102,11.055l8.79-6.201L270.97,401.775z M235.053,392.15L235.053,392.15l8.791,6.418l-2.104-11.324l7.712-5.826l-10.84,0.055
				l-3.56-10.572l-3.503,10.516h-10.842l7.604,5.826l-2.103,11.162l8.843-6.256L235.053,392.15z M305.217,392.041L305.217,392.041
				l8.682,6.309l-2.103-11.107l7.551-5.771l-10.624,0.053l-3.503-10.355l-3.452,10.303h-10.626l7.442,5.77l-2.103,10.947
				L305.217,392.041L305.217,392.041z M208.79,366.156L208.79,366.156l8.682,6.359l-2.049-11.16l7.55-5.715h-10.679l-3.502-10.355
				l-3.4,10.301h-10.678l7.497,5.77l-2.158,11.002L208.79,366.156L208.79,366.156z M332.29,365.992L332.29,365.992l8.467,6.203
				l-1.996-10.895l7.388-5.609h-10.462l-3.397-10.086l-3.344,10.086h-10.408l7.334,5.609l-2.051,10.682l8.468-5.984L332.29,365.992z
				 M200.646,329.938L200.646,329.938l8.521,6.201l-2.05-10.893l7.389-5.611h-10.408l-3.452-10.139l-3.339,10.088H186.84
				l7.334,5.662l-2.049,10.73L200.646,329.938L200.646,329.938z M341.351,329.668L341.351,329.668l8.143,5.986l-1.941-10.516
				l7.119-5.393l-10.032,0.053l-3.289-9.814l-3.237,9.762h-10.03l7.063,5.393l-1.995,10.355l8.197-5.824L341.351,329.668z
				 M332.29,294.582L332.29,294.582l8.682,6.309l-2.103-11.108l7.604-5.714h-10.679l-3.502-10.355l-3.397,10.301h-10.681
				l7.496,5.771l-2.103,10.948l8.682-6.148L332.29,294.582z M208.79,294.475L208.79,294.475l8.52,6.201l-2.048-10.945l7.495-5.664
				l-10.518,0.055l-3.449-10.194l-3.344,10.14h-10.517l7.388,5.664l-2.103,10.785l8.572-6.041H208.79z M305.216,267.393
				L305.216,267.393l8.467,6.146l-2.05-10.894l7.443-5.609h-10.462l-3.397-10.14l-3.343,10.14H291.41l7.334,5.609l-2.049,10.731
				l8.52-5.985L305.216,267.393z M235.053,267.071L235.053,267.071l8.089,5.93l-1.941-10.461l7.119-5.339h-9.977l-3.29-9.706
				l-3.235,9.65h-9.977l7.011,5.395l-1.941,10.301L235.053,267.071L235.053,267.071z M270.971,257.984L270.971,257.984l8.304,6.04
				l-1.996-10.623l7.227-5.503h-10.192l-3.343-9.922l-3.344,9.87h-10.139l7.118,5.555l-1.994,10.462L270.971,257.984
				L270.971,257.984z"/>
		</g>
		<g id="Group_32" transform="translate(444.759 328.837)">
			
				<linearGradient id="Rectangle_29_1_" gradientUnits="userSpaceOnUse" x1="-492.2551" y1="822.0995" x2="-438.8057" y2="822.0995" gradientTransform="matrix(27.895 0 0 -140.322 13775.4385 115499.375)">
				<stop  offset="0" style="stop-color:#4277B2"/>
				<stop  offset="0.13" style="stop-color:#4883BD"/>
				<stop  offset="0.45" style="stop-color:#559BD3"/>
				<stop  offset="0.75" style="stop-color:#60A9DD"/>
				<stop  offset="1" style="stop-color:#63ADE0"/>
			</linearGradient>
			<rect id="Rectangle_29" x="1191.544" y="76.147" fill="url(#Rectangle_29_1_)" width="25.711" height="129.342"/>
			
				<linearGradient id="Rectangle_30_1_" gradientUnits="userSpaceOnUse" x1="-447.7282" y1="822.0995" x2="-394.2687" y2="822.0995" gradientTransform="matrix(27.895 0 0 -140.322 12533.4541 115499.375)">
				<stop  offset="0" style="stop-color:#4277B2"/>
				<stop  offset="0.13" style="stop-color:#4883BD"/>
				<stop  offset="0.45" style="stop-color:#559BD3"/>
				<stop  offset="0.75" style="stop-color:#60A9DD"/>
				<stop  offset="1" style="stop-color:#63ADE0"/>
			</linearGradient>
			<rect id="Rectangle_30" x="46.732" y="76.147" fill="url(#Rectangle_30_1_)" width="25.713" height="129.342"/>
			
				<linearGradient id="Path_3495_1_" gradientUnits="userSpaceOnUse" x1="-433.3723" y1="822.0975" x2="-421.8476" y2="822.0975" gradientTransform="matrix(129.305 0 0 -140.251 56081.4375 115440.8125)">
				<stop  offset="0" style="stop-color:#4277B2"/>
				<stop  offset="0.13" style="stop-color:#4883BD"/>
				<stop  offset="0.45" style="stop-color:#559BD3"/>
				<stop  offset="0.75" style="stop-color:#60A9DD"/>
				<stop  offset="1" style="stop-color:#63ADE0"/>
			</linearGradient>
			<path id="Path_3495" fill="url(#Path_3495_1_)" d="M342.65,76.146h-46.737v24.215h46.737v105.062h25.712V100.361h46.737V76.146
				H342.65z"/>
			
				<linearGradient id="Path_3496_1_" gradientUnits="userSpaceOnUse" x1="-434.9778" y1="822.0985" x2="-424.7734" y2="822.0985" gradientTransform="matrix(146.042 0 0 -140.397 63569.4648 115560.8359)">
				<stop  offset="0" style="stop-color:#4277B2"/>
				<stop  offset="0.13" style="stop-color:#4883BD"/>
				<stop  offset="0.45" style="stop-color:#559BD3"/>
				<stop  offset="0.75" style="stop-color:#60A9DD"/>
				<stop  offset="1" style="stop-color:#63ADE0"/>
			</linearGradient>
			<path id="Path_3496" fill="url(#Path_3496_1_)" d="M708.35,151.589c18.461-3.495,31.332-20.323,29.875-39.057
				c0-35.606-35.672-36.453-35.672-36.453h-88.395v129.407h26.037v-46.928c16.924-13.019,41.465-6.966,41.465-6.966
				c15.754,41.465,43.092,53.9,43.092,53.9h24.02v-28.191h-21.35C715.835,173.135,708.35,151.589,708.35,151.589z M701.319,126.268
				h-35.082c-9.113,0.927-18.051,3.116-26.559,6.509V100.23h62.166c6.959,0.314,12.439,6.053,12.432,13.02
				C714.276,113.249,715.835,124.251,701.319,126.268z"/>
			
				<linearGradient id="Path_3497_1_" gradientUnits="userSpaceOnUse" x1="-435.5656" y1="822.1005" x2="-422.8155" y2="822.1005" gradientTransform="matrix(116.876 0 0 -140.96 50951.3203 116023.9531)">
				<stop  offset="0" style="stop-color:#4277B2"/>
				<stop  offset="0.13" style="stop-color:#4883BD"/>
				<stop  offset="0.45" style="stop-color:#559BD3"/>
				<stop  offset="0.75" style="stop-color:#60A9DD"/>
				<stop  offset="1" style="stop-color:#63ADE0"/>
			</linearGradient>
			<path id="Path_3497" fill="url(#Path_3497_1_)" d="M482.082,155.623c7.636-4.018,16.278-5.717,24.866-4.887h35.216v-24.86
				h-32.548c-9.553,0.532-18.938,2.734-27.729,6.51V99.839h77.071V75.559H456.369v129.931H564.1v-24.868h-82.019V155.623z"/>
			
				<linearGradient id="Path_3498_1_" gradientUnits="userSpaceOnUse" x1="-444.6154" y1="822.1005" x2="-431.865" y2="822.1005" gradientTransform="matrix(116.946 0 0 -140.96 52039.8242 116023.9531)">
				<stop  offset="0" style="stop-color:#4277B2"/>
				<stop  offset="0.13" style="stop-color:#4883BD"/>
				<stop  offset="0.45" style="stop-color:#559BD3"/>
				<stop  offset="0.75" style="stop-color:#60A9DD"/>
				<stop  offset="1" style="stop-color:#63ADE0"/>
			</linearGradient>
			<path id="Path_3498" fill="url(#Path_3498_1_)" d="M1457.909,180.621v-24.998c7.637-4.016,16.277-5.714,24.865-4.887h35.217
				v-24.86h-32.549c-9.553,0.532-18.938,2.734-27.73,6.51V99.839h77.072V75.559h-102.588v129.931h107.795v-24.868H1457.909z"/>
			
				<linearGradient id="Path_3499_1_" gradientUnits="userSpaceOnUse" x1="-434.4255" y1="822.0975" x2="-427.1768" y2="822.0975" gradientTransform="matrix(205.716 0 0 -140.251 89412.1172 115440.8125)">
				<stop  offset="0" style="stop-color:#4277B2"/>
				<stop  offset="0.13" style="stop-color:#4883BD"/>
				<stop  offset="0.45" style="stop-color:#559BD3"/>
				<stop  offset="0.75" style="stop-color:#60A9DD"/>
				<stop  offset="1" style="stop-color:#63ADE0"/>
			</linearGradient>
			<path id="Path_3499" fill="url(#Path_3499_1_)" d="M1087.262,170.662h-0.064l-18.553-53.441l-13.344-38.47l-0.846-2.604h-26.949
				l13.67,40.097l-20.439,54.419h-0.066l-32.742-94.516h-26.947l44.133,129.277h30.463l18.879-50.317l17.182,50.317h30.463
				l48.5-129.277h-27.797L1087.262,170.662z"/>
			
				<linearGradient id="Path_3500_1_" gradientUnits="userSpaceOnUse" x1="-441.3625" y1="822.1415" x2="-429.9442" y2="822.1415" gradientTransform="matrix(130.576 0 0 -151.123 57675.3672 124385.2266)">
				<stop  offset="0" style="stop-color:#4277B2"/>
				<stop  offset="0.13" style="stop-color:#4883BD"/>
				<stop  offset="0.45" style="stop-color:#559BD3"/>
				<stop  offset="0.75" style="stop-color:#60A9DD"/>
				<stop  offset="1" style="stop-color:#63ADE0"/>
			</linearGradient>
			<path id="Path_3500" fill="url(#Path_3500_1_)" d="M1327.005,126.751c-17.447-1.887-32.549-5.076-32.549-16.533
				c0-9.764,9.766-17.444,30.074-17.444c12.387-0.428,24.402,4.283,33.197,13.019l15.945-18.158
				c-12.301-12.564-31.438-16.47-49.926-16.47c-26.754,0-56.242,11.262-56.242,38.276c0,29.487,27.406,36.582,57.023,39.772
				c19.527,1.887,33.652,6.966,33.652,19.528c0,14.256-16.207,19.527-33.393,19.527s-34.436-6.508-40.879-20.831l-18.811,17.898
				c11.914,18.487,32.873,25.127,59.367,25.127c32.547,0,60.992-12.566,60.992-41.858
				C1385.458,137.297,1357.274,130.005,1327.005,126.751z"/>
			
				<linearGradient id="Path_3501_1_" gradientUnits="userSpaceOnUse" x1="-431.3425" y1="822.0975" x2="-421.0525" y2="822.0975" gradientTransform="matrix(144.915 0 0 -140.251 62552.1289 115440.8125)">
				<stop  offset="0" style="stop-color:#4277B2"/>
				<stop  offset="0.13" style="stop-color:#4883BD"/>
				<stop  offset="0.45" style="stop-color:#559BD3"/>
				<stop  offset="0.75" style="stop-color:#60A9DD"/>
				<stop  offset="1" style="stop-color:#63ADE0"/>
			</linearGradient>
			<path id="Path_3501" fill="url(#Path_3501_1_)" d="M227.629,163.177L157.265,82.46l-5.468-6.314h-32.029v2.211l11.847,13.931
				v113.134h25.65v-82.866l70.366,82.866h25.713V76.146h-25.716V163.177z"/>
			
				<linearGradient id="Path_3502_1_" gradientUnits="userSpaceOnUse" x1="-436.2883" y1="822.0975" x2="-425.9993" y2="822.0975" gradientTransform="matrix(144.912 0 0 -140.251 63267.3438 115440.8125)">
				<stop  offset="0" style="stop-color:#4277B2"/>
				<stop  offset="0.13" style="stop-color:#4883BD"/>
				<stop  offset="0.45" style="stop-color:#559BD3"/>
				<stop  offset="0.75" style="stop-color:#60A9DD"/>
				<stop  offset="1" style="stop-color:#63ADE0"/>
			</linearGradient>
			<path id="Path_3502" fill="url(#Path_3502_1_)" d="M888.204,163.177L817.839,82.46l-5.469-6.314h-32.025v2.211l11.848,13.931
				v113.134h25.646v-82.866l70.365,82.866h25.713V76.146h-25.713V163.177z"/>
		</g>
		<g id="Group_33" transform="translate(587.451 556.394)">
			<path id="Path_3503" fill="#5CA6DB" d="M46.099,88.401L35.567,54.655h10.988l6.5,24.967L70.22,54.655h10.858L56.046,88.401
				l-3.836,18.27h-9.947L46.099,88.401z"/>
			<path id="Path_3504" fill="#5CA6DB" d="M86.668,107.385c-2.232,0.01-4.444-0.434-6.5-1.303c-1.853-0.787-3.515-1.963-4.876-3.443
				c-1.25-1.506-2.217-3.223-2.857-5.07c-0.708-1.959-1.061-4.029-1.041-6.111c0.027-3.018,0.646-6,1.821-8.777
				c1.165-2.82,2.84-5.396,4.942-7.607c2.169-2.248,4.751-4.061,7.606-5.33c2.996-1.379,6.261-2.066,9.557-2.018
				c2.238-0.053,4.459,0.391,6.503,1.301c1.849,0.764,3.512,1.918,4.876,3.381c1.342,1.486,2.361,3.234,2.991,5.135
				c0.702,2.096,1.032,4.295,0.975,6.502c0.004,3.021-0.615,6.01-1.82,8.777c-1.157,2.803-2.834,5.361-4.941,7.543
				c-2.165,2.229-4.721,4.035-7.542,5.332C93.296,106.973,89.985,107.549,86.668,107.385z M88.359,99.061
				c1.542-0.012,3.059-0.391,4.425-1.105c1.454-0.777,2.755-1.813,3.836-3.057c1.157-1.33,2.079-2.848,2.73-4.486
				c0.707-1.756,1.061-3.637,1.041-5.531c0.125-2.316-0.54-4.607-1.885-6.5c-1.255-1.588-3.179-2.5-5.202-2.471
				c-1.541,0.021-3.056,0.398-4.424,1.107c-1.46,0.795-2.761,1.854-3.836,3.119c-1.148,1.34-2.07,2.854-2.73,4.488
				c-0.66,1.744-0.991,3.594-0.975,5.461c-0.156,2.32,0.512,4.625,1.885,6.502C84.463,98.161,86.358,99.073,88.359,99.061z"/>
			<path id="Path_3505" fill="#5CA6DB" d="M124.572,107.383c-6.046,0-9.033-3.121-9.033-9.363c-0.06-0.887-0.06-1.777,0-2.664
				c0.145-1.008,0.34-2.006,0.585-2.992l5.069-23.992h9.752l-4.616,21.848c0.004,0.67-0.128,1.334-0.39,1.949
				c-0.03,0.563-0.03,1.129,0,1.689c0,3.447,1.496,5.203,4.424,5.203c1.906-0.07,3.754-0.678,5.332-1.752
				c2.083-1.322,3.839-3.102,5.136-5.201l5.07-23.73h9.752l-5.721,27.047c-0.03,0.217-0.03,0.434,0,0.65
				c-0.029,0.215-0.029,0.432,0,0.646c0,1.041,0.585,1.559,1.75,1.627l-1.886,8.318l-2.275,0.326h-1.82
				c-1.396,0.055-2.775-0.307-3.964-1.039c-0.949-0.752-1.482-1.912-1.43-3.123v-1.363c0.11-0.725,0.262-1.441,0.456-2.146
				c-2.053,2.473-4.599,4.488-7.477,5.916c-2.71,1.348-5.686,2.08-8.712,2.146H124.572z"/>
			<path id="Path_3506" fill="#5CA6DB" d="M166.313,68.374h8.971l-1.751,8.193c1.721-2.572,3.93-4.781,6.501-6.502
				c1.982-1.461,4.366-2.279,6.827-2.342h1.751l-1.821,8.646c-2.693,0.041-5.35,0.637-7.801,1.752
				c-2.402,1.023-4.441,2.744-5.851,4.941l-5.136,23.596h-9.817L166.313,68.374z"/>
			<path id="Path_3507" fill="#5CA6DB" d="M215.985,54.655h10.012l-11.052,52.016h-10.012L215.985,54.655z"/>
			<path id="Path_3508" fill="#5CA6DB" d="M233.93,68.374h8.842l-1.496,7.088c1.846-2.445,4.255-4.408,7.023-5.723
				c2.795-1.354,5.865-2.043,8.972-2.016c1.401-0.063,2.799,0.184,4.096,0.715c1.027,0.375,1.944,1,2.666,1.822
				c0.671,0.834,1.139,1.811,1.365,2.857c0.27,1.129,0.401,2.285,0.39,3.445c0.061,1.018,0.061,2.039,0,3.055
				c-0.077,1.055-0.252,2.1-0.52,3.123l-5.266,23.926h-9.755l4.551-21.521v-2.016c0.058-0.604,0.058-1.213,0-1.818
				c0.132-1.354-0.265-2.705-1.106-3.771c-0.811-0.799-1.918-1.223-3.055-1.172c-0.953,0.029-1.896,0.203-2.796,0.521
				c-1.07,0.422-2.076,0.992-2.991,1.691c-1.037,0.721-1.977,1.574-2.796,2.535c-0.847,0.967-1.567,2.037-2.146,3.186l-4.288,22.365
				h-9.753L233.93,68.374z"/>
			<path id="Path_3509" fill="#5CA6DB" d="M280.739,107.317c-2.021,0.078-4.018-0.465-5.721-1.561
				c-1.571-1.244-2.403-3.205-2.212-5.201c-0.104-0.885-0.104-1.779,0-2.664l4.615-21.977h-4.743l1.625-7.541h4.681l2.6-12.418
				h9.818l-2.602,12.418h7.607l-1.17,7.541h-7.672l-4.031,18.662c-0.028,0.217-0.028,0.434,0,0.65c-0.031,0.172-0.031,0.348,0,0.52
				c-0.084,0.758,0.208,1.512,0.781,2.016c0.59,0.412,1.297,0.619,2.016,0.586c0.975-0.016,1.94-0.191,2.857-0.521
				c0.848-0.232,1.676-0.537,2.471-0.908v7.734c-1.625,0.777-3.323,1.385-5.07,1.822c-1.9,0.549-3.871,0.834-5.852,0.844
				L280.739,107.317z"/>
			<path id="Path_3510" fill="#5CA6DB" d="M313.572,107.385c-2.229,0.039-4.441-0.383-6.5-1.236
				c-1.842-0.75-3.503-1.881-4.877-3.318c-1.381-1.479-2.443-3.229-3.12-5.135c-0.731-2.09-1.084-4.291-1.041-6.502
				c-0.024-3.105,0.595-6.182,1.82-9.033c1.196-2.811,2.942-5.352,5.136-7.477c4.562-4.527,10.737-7.055,17.164-7.021
				c3.523-0.186,7.013,0.771,9.947,2.73c2.446,1.883,3.809,4.846,3.642,7.926c0,8.258-7.347,12.354-22.04,12.354h-5.592v0.908
				c-0.133,2.293,0.459,4.566,1.69,6.504c1.351,1.678,3.444,2.58,5.592,2.404c1.927,0.006,3.827-0.465,5.53-1.365
				c1.676-0.93,3.085-2.271,4.096-3.9l7.738,2.406c-0.995,1.506-2.198,2.863-3.576,4.029c-1.388,1.268-2.94,2.338-4.617,3.188
				c-1.691,0.893-3.48,1.59-5.33,2.078c-1.859,0.385-3.759,0.537-5.656,0.457L313.572,107.385z M320.66,74.878
				c-1.361-0.014-2.71,0.252-3.964,0.779c-1.194,0.506-2.293,1.209-3.251,2.08c-0.962,0.916-1.813,1.943-2.536,3.055
				c-0.72,1.158-1.288,2.404-1.69,3.705h4.486c1.99,0.152,3.99,0.152,5.98,0c1.345-0.189,2.658-0.559,3.901-1.104
				c0.866-0.373,1.628-0.953,2.212-1.691c0.411-0.713,0.635-1.518,0.649-2.342c0.054-1.271-0.563-2.48-1.626-3.184
				c-1.219-0.861-2.668-1.336-4.16-1.367L320.66,74.878z"/>
			<path id="Path_3511" fill="#5CA6DB" d="M345.949,68.374h8.975l-1.75,8.193c1.697-2.592,3.91-4.803,6.501-6.502
				c2.005-1.463,4.41-2.279,6.892-2.342h1.752l-1.821,8.646c-2.713,0.051-5.389,0.645-7.866,1.752
				c-2.379,1.035-4.395,2.754-5.786,4.941l-4.942,23.146h-9.754L345.949,68.374z"/>
			<path id="Path_3512" fill="#5CA6DB" d="M374.623,68.374h8.842l-1.56,7.086c1.872-2.418,4.274-4.375,7.021-5.721
				c2.801-1.342,5.868-2.031,8.973-2.018c1.423-0.066,2.843,0.178,4.162,0.717c1.004,0.381,1.896,1.01,2.6,1.82
				c0.691,0.83,1.182,1.807,1.43,2.859c0.27,1.129,0.4,2.285,0.391,3.445c0.061,1.018,0.061,2.039,0,3.055
				c0.082,1.068-0.096,2.139-0.52,3.121l-5.07,23.926h-9.754l4.487-21.52l0.389-2.016v-1.82c0.106-1.352-0.288-2.691-1.105-3.77
				c-0.813-0.799-1.919-1.223-3.057-1.172c-0.973,0.031-1.936,0.207-2.857,0.52c-1.063,0.438-2.066,1.006-2.99,1.691
				c-1.002,0.738-1.919,1.59-2.73,2.535c-0.848,0.967-1.568,2.037-2.146,3.186l-4.745,22.365h-9.624L374.623,68.374z"/>
			<path id="Path_3513" fill="#5CA6DB" d="M423.838,107.383c-2.953,0.016-5.885-0.514-8.646-1.563
				c-2.495-0.891-4.729-2.389-6.502-4.355l4.942-6.109c3.141,3.002,7.293,4.719,11.639,4.811c1.703,0.098,3.391-0.359,4.811-1.303
				c1.145-0.852,1.799-2.213,1.752-3.639c0.01-1.076-0.598-2.063-1.561-2.537c-1.623-0.813-3.32-1.467-5.07-1.949
				c-1.949-0.588-3.574-1.17-5.006-1.689c-1.223-0.482-2.383-1.113-3.445-1.887c-0.82-0.598-1.486-1.377-1.951-2.277
				c-0.404-0.943-0.604-1.961-0.584-2.988c-0.027-2.033,0.441-4.041,1.363-5.852c0.893-1.787,2.182-3.344,3.771-4.553
				c1.639-1.336,3.516-2.354,5.531-2.988c4.514-1.451,9.377-1.385,13.848,0.193c2.25,0.85,4.258,2.232,5.852,4.031l-5.201,5.918
				c-1.365-1.342-2.947-2.439-4.682-3.252c-1.543-0.648-3.201-0.98-4.875-0.977c-1.566-0.049-3.111,0.383-4.424,1.236
				c-1.242,0.838-1.938,2.277-1.822,3.771c-0.033,0.977,0.498,1.887,1.367,2.34c1.494,0.744,3.063,1.332,4.68,1.752
				c3.199,0.744,6.252,2.02,9.033,3.77c1.916,1.258,3.027,3.432,2.926,5.721c0.008,1.982-0.438,3.939-1.301,5.721
				c-0.877,1.742-2.119,3.271-3.641,4.488c-1.682,1.293-3.572,2.283-5.592,2.926c-2.332,0.764-4.764,1.18-7.217,1.236
				L423.838,107.383z"/>
			<path id="Path_3514" fill="#5CA6DB" d="M457.778,53.356h9.818l-4.742,22.105c1.711-2.371,3.934-4.326,6.502-5.723
				c2.426-1.35,5.154-2.064,7.932-2.08c1.465-0.072,2.928,0.172,4.291,0.715c1.064,0.402,2.021,1.051,2.795,1.887
				c0.711,0.824,1.223,1.803,1.494,2.857c0.287,1.148,0.441,2.326,0.457,3.51c0.063,0.996,0.063,1.996,0,2.99
				c-0.127,1.031-0.322,2.053-0.586,3.057l-5.006,23.926h-9.951l4.549-21.521c0.26-1.176,0.414-2.373,0.457-3.576
				c0-3.445-1.496-5.201-4.488-5.201c-0.887,0.035-1.766,0.211-2.6,0.521c-1.041,0.441-2.023,1.008-2.926,1.689
				c-0.967,0.76-1.857,1.611-2.664,2.537c-0.848,0.967-1.568,2.037-2.146,3.186l-4.746,22.367h-9.816L457.778,53.356z"/>
			<path id="Path_3515" fill="#5CA6DB" d="M497.957,68.374h9.818l-8.129,38.293h-9.752L497.957,68.374z M501.207,53.354h9.754
				l-2.018,9.689h-9.814L501.207,53.354z"/>
			<path id="Path_3516" fill="#5CA6DB" d="M517.528,68.374h8.582l-1.365,6.5c1.795-2.17,4.006-3.961,6.502-5.266
				c2.348-1.295,4.99-1.969,7.672-1.951c1.934-0.039,3.852,0.385,5.59,1.236c1.627,0.766,3.053,1.902,4.162,3.316
				c1.178,1.498,2.08,3.193,2.664,5.008c0.607,1.979,0.914,4.039,0.912,6.111c-0.084,6.172-2.393,12.104-6.502,16.709
				c-1.83,2.154-4.031,3.961-6.502,5.332c-2.426,1.273-5.125,1.945-7.867,1.949c-2.475,0.1-4.916-0.607-6.957-2.016
				c-1.844-1.334-3.174-3.262-3.77-5.461l-4.748,22.299h-9.816L517.528,68.374z M529.877,99.059c1.582,0.008,3.135-0.42,4.488-1.234
				c1.467-0.785,2.768-1.844,3.836-3.121c1.104-1.369,1.98-2.904,2.6-4.549c0.648-1.637,0.98-3.379,0.977-5.139
				c0.098-2.334-0.615-4.631-2.016-6.5c-1.311-1.709-3.381-2.658-5.531-2.537c-0.93-0.008-1.854,0.146-2.73,0.455
				c-0.943,0.338-1.84,0.797-2.664,1.365c-0.9,0.6-1.75,1.275-2.537,2.016c-0.746,0.789-1.4,1.662-1.951,2.602l-1.949,8.973
				c0.299,2.039,1.205,3.943,2.6,5.461c1.234,1.404,3.012,2.209,4.881,2.211L529.877,99.059z"/>
			<path id="Path_3517" fill="#5CA6DB" d="M591.645,107.253c-3.605,0.018-7.191-0.574-10.6-1.752
				c-3.203-1.086-6.16-2.785-8.711-5.004l6.5-8.646c0.438,0.674,1.014,1.25,1.691,1.689c1.057,0.816,2.189,1.535,3.381,2.145
				c1.473,0.744,3.02,1.33,4.615,1.752c1.752,0.506,3.57,0.746,5.396,0.715c2.295,0.18,4.584-0.416,6.5-1.691
				c1.396-1.092,2.191-2.779,2.146-4.551c0.029-0.881-0.271-1.738-0.846-2.404c-0.627-0.756-1.4-1.377-2.275-1.82
				c-1.113-0.623-2.291-1.125-3.512-1.496c-1.301-0.455-2.795-0.977-4.424-1.432c-3.045-0.797-5.881-2.238-8.322-4.225
				c-1.941-1.779-2.988-4.33-2.857-6.957c-0.035-2.795,0.588-5.557,1.82-8.063c1.18-2.338,2.842-4.398,4.875-6.047
				c2.086-1.686,4.467-2.963,7.023-3.771c2.689-0.861,5.496-1.301,8.322-1.299c3.164-0.055,6.305,0.541,9.23,1.75
				c2.451,1.021,4.75,2.377,6.826,4.031l-6.502,8.191c-0.385-0.52-0.844-0.98-1.365-1.363c-0.85-0.672-1.764-1.26-2.729-1.752
				c-1.195-0.576-2.436-1.057-3.707-1.432c-1.375-0.389-2.797-0.588-4.227-0.586c-2.332-0.166-4.645,0.527-6.502,1.951
				c-1.438,1.262-2.246,3.094-2.211,5.006c-0.035,0.768,0.195,1.525,0.648,2.146c0.463,0.684,1.088,1.244,1.822,1.623
				c0.959,0.52,1.961,0.953,2.996,1.299l4.098,1.236c1.82,0.469,3.604,1.078,5.33,1.82c1.471,0.6,2.83,1.432,4.031,2.473
				c1.113,0.912,2.004,2.068,2.6,3.379c0.635,1.477,0.943,3.074,0.912,4.682c0.068,2.908-0.58,5.787-1.887,8.389
				c-1.217,2.258-2.928,4.213-5.006,5.721c-2.1,1.541-4.486,2.646-7.021,3.25c-2.631,0.697-5.34,1.045-8.063,1.041V107.253z"/>
			<path id="Path_3518" fill="#5CA6DB" d="M626.039,68.374h8.518l-1.367,6.504c1.811-2.158,4.018-3.945,6.502-5.27
				c2.369-1.305,5.035-1.977,7.74-1.951c1.914-0.039,3.813,0.385,5.529,1.236c1.637,0.779,3.08,1.912,4.227,3.316
				c1.158,1.5,2.037,3.195,2.6,5.008c0.607,1.977,0.914,4.039,0.91,6.109c0.006,3.113-0.568,6.199-1.689,9.104
				c-1.051,2.771-2.568,5.346-4.486,7.607c-1.846,2.135-4.045,3.939-6.502,5.33c-2.426,1.275-5.125,1.947-7.867,1.949
				c-2.475,0.102-4.916-0.605-6.955-2.014c-1.828-1.354-3.154-3.273-3.771-5.461l-4.746,22.301h-9.824L626.039,68.374z
				 M638.391,99.061c1.58,0.006,3.131-0.422,4.484-1.234c1.443-0.793,2.723-1.85,3.771-3.123c1.102-1.381,1.998-2.914,2.666-4.549
				c0.648-1.637,0.98-3.379,0.975-5.139c0.074-2.342-0.662-4.637-2.08-6.5c-1.311-1.709-3.381-2.658-5.531-2.537
				c-0.93,0-1.852,0.152-2.73,0.455c-0.945,0.338-1.84,0.797-2.666,1.365c-0.881,0.6-1.705,1.273-2.471,2.016
				c-0.766,0.787-1.443,1.662-2.016,2.602l-1.949,8.973c0.297,2.039,1.205,3.943,2.6,5.461
				C634.692,98.272,636.498,99.081,638.391,99.061L638.391,99.061z"/>
			<path id="Path_3519" fill="#5CA6DB" d="M680.781,107.385c-2.23,0.047-4.445-0.373-6.502-1.238
				c-1.869-0.732-3.555-1.865-4.941-3.318c-1.381-1.479-2.443-3.227-3.121-5.135c-0.73-2.09-1.084-4.291-1.041-6.502
				c-0.033-3.111,0.609-6.193,1.885-9.033c1.197-2.795,2.92-5.33,5.07-7.477c2.23-2.156,4.828-3.896,7.672-5.137
				c3.025-1.268,6.277-1.908,9.559-1.887c3.5-0.174,6.967,0.783,9.881,2.73c2.479,1.861,3.869,4.834,3.707,7.928
				c0,8.258-7.35,12.352-22.105,12.352h-5.592v0.91c-0.148,2.303,0.467,4.586,1.75,6.502c1.338,1.66,3.404,2.559,5.531,2.406
				c1.93,0.012,3.83-0.457,5.529-1.365c1.709-0.91,3.145-2.256,4.16-3.902l7.738,2.406c-1.014,1.492-2.215,2.846-3.574,4.029
				c-1.422,1.252-2.996,2.322-4.682,3.186c-1.67,0.893-3.436,1.592-5.266,2.08c-1.861,0.379-3.76,0.531-5.658,0.457V107.385z
				 M687.867,74.878c-1.34-0.012-2.668,0.254-3.9,0.779c-1.209,0.475-2.314,1.182-3.25,2.08c-0.998,0.883-1.854,1.914-2.537,3.057
				c-0.713,1.17-1.301,2.412-1.752,3.705h4.551c1.969,0.15,3.947,0.15,5.916,0c1.363-0.199,2.695-0.57,3.965-1.105
				c0.838-0.389,1.57-0.967,2.146-1.689c0.441-0.701,0.666-1.514,0.65-2.342c0.08-1.277-0.543-2.5-1.627-3.184
				c-1.209-0.881-2.664-1.357-4.16-1.367L687.867,74.878z"/>
			<path id="Path_3520" fill="#5CA6DB" d="M722.002,107.385c-2.234,0.014-4.445-0.43-6.504-1.301
				c-1.871-0.787-3.555-1.963-4.939-3.445c-1.311-1.5-2.305-3.246-2.926-5.137c-0.656-1.992-0.984-4.078-0.977-6.176
				c-0.002-3.033,0.594-6.037,1.752-8.84c2.369-5.781,6.863-10.436,12.557-13.008c3.035-1.311,6.313-1.975,9.619-1.949
				c3.441-0.176,6.844,0.785,9.688,2.732c2.387,1.711,4.072,4.227,4.746,7.086l-10.012,2.857c-0.832-2.832-3.566-4.664-6.502-4.357
				c-1.535-0.004-3.051,0.354-4.424,1.041c-1.461,0.709-2.748,1.73-3.771,2.99c-1.162,1.314-2.066,2.836-2.664,4.486
				c-0.719,1.775-1.072,3.676-1.043,5.59c-0.104,2.326,0.584,4.617,1.951,6.502c1.24,1.57,3.137,2.48,5.137,2.471
				c1.625-0.025,3.217-0.473,4.615-1.299c1.436-0.785,2.66-1.9,3.576-3.252l8.908,2.926c-1.949,2.986-4.607,5.443-7.736,7.152
				C729.694,106.395,725.879,107.407,722.002,107.385z"/>
			<path id="Path_3521" fill="#5CA6DB" d="M753.86,68.374h9.494l-7.803,38.293h-9.82L753.86,68.374z M757.045,53.354h9.818
				l-2.082,9.689h-9.752L757.045,53.354z"/>
			<path id="Path_3522" fill="#5CA6DB" d="M780.256,107.385c-1.979,0.045-3.939-0.381-5.721-1.238
				c-1.658-0.744-3.109-1.885-4.227-3.318c-1.246-1.451-2.156-3.16-2.666-5.006c-0.643-1.992-0.951-4.08-0.91-6.176
				c-0.025-3.113,0.549-6.203,1.689-9.102c1.074-2.789,2.637-5.367,4.617-7.607c1.813-2.154,4.02-3.941,6.502-5.266
				c2.443-1.289,5.168-1.959,7.932-1.951c2.326-0.037,4.604,0.668,6.502,2.018c1.816,1.318,3.162,3.188,3.836,5.33l1.432-6.5h9.814
				l-5.721,26.914c-0.049,0.432-0.049,0.869,0,1.301c0,1.041,0.586,1.561,1.752,1.623l-1.752,8.324l-2.338,0.326h-1.691
				c-1.43,0.084-2.846-0.305-4.031-1.107c-1.049-0.77-1.637-2.018-1.561-3.318c0.078-0.943,0.23-1.877,0.455-2.795
				c-1.693,2.336-3.924,4.232-6.5,5.529c-2.289,1.219-4.822,1.908-7.412,2.018L780.256,107.385z M784.68,99.061
				c0.904-0.033,1.801-0.188,2.666-0.453c0.965-0.336,1.883-0.795,2.73-1.367c0.883-0.619,1.711-1.314,2.471-2.08
				c0.762-0.77,1.438-1.621,2.016-2.535l1.885-9.102c-0.242-2.021-1.158-3.898-2.602-5.334c-1.242-1.379-3.018-2.158-4.875-2.145
				c-1.59,0.01-3.152,0.412-4.551,1.172c-1.465,0.842-2.764,1.943-3.836,3.25c-1.078,1.385-1.955,2.918-2.602,4.549
				c-0.646,1.637-0.979,3.381-0.975,5.141c-0.113,2.334,0.6,4.637,2.014,6.5c1.404,1.643,3.498,2.533,5.654,2.404H784.68z"/>
			<path id="Path_3523" fill="#5CA6DB" d="M821.086,107.253c-2.039,0.143-4.057-0.482-5.658-1.752
				c-1.348-1.281-2.08-3.082-2.014-4.939c-0.029-0.434-0.029-0.867,0-1.301c-0.055-0.477-0.055-0.955,0-1.432l9.494-44.471h9.686
				l-8.646,41.023c-0.025,0.238-0.025,0.479,0,0.717v0.715c-0.191,1.494,0.865,2.863,2.361,3.057c0.23,0.027,0.465,0.027,0.695,0
				c0.617-0.029,1.23-0.141,1.82-0.324l2.014-0.717l-0.324,7.412c-1.512,0.699-3.105,1.201-4.746,1.496
				c-1.543,0.309-3.109,0.482-4.682,0.52V107.253z"/>
			<path id="Path_3524" fill="#5CA6DB" d="M843.776,68.374h9.752l-8.061,38.293h-9.818L843.776,68.374z M846.961,53.354h9.818
				l-2.08,9.689h-9.754L846.961,53.354z"/>
			<path id="Path_3525" fill="#5CA6DB" d="M868.932,107.383c-2.975,0.012-5.926-0.518-8.711-1.563
				c-2.5-0.879-4.736-2.377-6.502-4.354l4.939-6.111c3.094,3.059,7.225,4.846,11.574,5.006c1.699,0.09,3.387-0.365,4.811-1.301
				c1.145-0.854,1.801-2.215,1.75-3.641c0.012-1.076-0.594-2.063-1.559-2.535c-1.621-0.816-3.32-1.469-5.07-1.951
				c-1.951-0.586-3.641-1.172-5.006-1.691c-1.225-0.479-2.383-1.113-3.447-1.885c-0.816-0.596-1.484-1.375-1.949-2.275
				c-0.428-0.938-0.648-1.959-0.648-2.99c-0.006-2.037,0.484-4.045,1.43-5.852c0.891-1.785,2.182-3.346,3.77-4.551
				c1.641-1.338,3.516-2.354,5.531-2.99c4.537-1.512,9.441-1.512,13.979,0c2.248,0.848,4.258,2.232,5.852,4.031l-5.201,5.916
				c-1.367-1.34-2.949-2.438-4.682-3.25c-1.543-0.648-3.201-0.98-4.875-0.977c-1.566-0.051-3.111,0.383-4.424,1.236
				c-1.242,0.838-1.938,2.277-1.822,3.77c-0.033,0.979,0.498,1.889,1.367,2.34c1.494,0.746,3.063,1.336,4.68,1.758
				c3.199,0.744,6.252,2.02,9.033,3.77c1.916,1.258,3.027,3.43,2.926,5.721c0.008,1.982-0.438,3.939-1.301,5.723
				c-0.877,1.74-2.119,3.27-3.641,4.484c-1.68,1.293-3.572,2.283-5.592,2.926c-2.332,0.766-4.764,1.182-7.217,1.238L868.932,107.383
				z"/>
			<path id="Path_3526" fill="#5CA6DB" d="M903.069,107.317c-2.023,0.096-4.025-0.451-5.721-1.561
				c-1.596-1.232-2.453-3.191-2.275-5.201c0.004-0.898,0.113-1.793,0.326-2.664l4.68-21.977h-4.746l1.563-7.541h4.68l2.666-12.418
				h9.75l-2.6,12.418h7.998l-1.627,7.541h-7.605l-4.031,18.662v1.17c-0.086,0.76,0.205,1.514,0.779,2.018
				c0.588,0.412,1.297,0.617,2.016,0.584c0.975-0.008,1.941-0.186,2.855-0.52c0.85-0.23,1.676-0.537,2.473-0.91v7.736
				c-1.621,0.785-3.32,1.396-5.07,1.82c-1.984,0.582-4.045,0.865-6.111,0.844L903.069,107.317z"/>
			<path id="Path_3527" fill="#5CA6DB" d="M946.174,68.374h9.754l-8.063,38.293h-9.818L946.174,68.374z M949.36,53.354h9.818
				l-2.08,9.689h-9.752L949.36,53.354z"/>
			<path id="Path_3528" fill="#5CA6DB" d="M965.746,68.374h8.842l-1.561,7.086c1.859-2.432,4.264-4.391,7.023-5.721
				c2.793-1.354,5.863-2.043,8.971-2.018c1.4-0.068,2.801,0.178,4.096,0.717c1.027,0.373,1.945,1,2.666,1.82
				c0.67,0.834,1.139,1.811,1.365,2.857c0.291,1.125,0.445,2.283,0.455,3.445v3.055c-0.131,1.053-0.326,2.094-0.584,3.123
				l-5.004,23.928h-9.822l4.553-21.518v-2.018c0.053-0.604,0.053-1.213,0-1.818c0.111-1.361-0.309-2.713-1.172-3.771
				c-0.783-0.801-1.873-1.229-2.992-1.172c-0.973,0.027-1.936,0.203-2.857,0.521c-1.068,0.422-2.076,0.992-2.99,1.691
				c-1.002,0.738-1.918,1.588-2.73,2.533c-0.848,0.982-1.588,2.051-2.213,3.188l-4.746,22.363h-9.752L965.746,68.374z"/>
			<path id="Path_3529" fill="#5CA6DB" d="M1031.606,54.655h33.611l-1.818,8.844h-23.666l-2.666,12.482h20.416l-1.752,8.191h-20.418
				l-2.859,13.523h24.316l-1.951,8.842h-34.266L1031.606,54.655z"/>
			<path id="Path_3530" fill="#5CA6DB" d="M1072.24,107.383c-6.047,0-9.033-3.121-9.033-9.363c-0.061-0.887-0.061-1.777,0-2.664
				c0.145-1.008,0.34-2.006,0.586-2.992l5.068-23.992h9.754l-4.617,21.848c0.004,0.67-0.127,1.334-0.391,1.949
				c-0.029,0.563-0.029,1.129,0,1.689c0,3.447,1.432,5.203,4.357,5.203c1.926-0.07,3.797-0.676,5.396-1.752
				c2.084-1.322,3.84-3.102,5.135-5.201l5.07-23.73h9.752l-5.793,27.045v0.648c-0.027,0.215-0.027,0.432,0,0.645
				c0,1.043,0.586,1.561,1.752,1.627l-1.752,8.322l-2.275,0.324h-1.82c-1.395,0.055-2.775-0.307-3.963-1.039
				c-0.951-0.75-1.482-1.912-1.432-3.121v-1.365c0.111-0.725,0.262-1.439,0.455-2.146c-2.051,2.471-4.598,4.488-7.475,5.916
				C1078.285,106.592,1075.289,107.327,1072.24,107.383z"/>
			<path id="Path_3531" fill="#5CA6DB" d="M1113.981,68.374h8.971l-1.75,8.193c1.721-2.572,3.93-4.781,6.502-6.502
				c1.982-1.461,4.365-2.279,6.826-2.342h1.752l-1.82,8.646c-2.695,0.041-5.35,0.637-7.803,1.752
				c-2.402,1.021-4.439,2.744-5.85,4.941l-4.877,23.146h-9.818L1113.981,68.374z"/>
			<path id="Path_3532" fill="#5CA6DB" d="M1149.543,107.383c-2.232-0.002-4.441-0.443-6.502-1.301
				c-1.824-0.805-3.463-1.979-4.811-3.447c-1.295-1.482-2.289-3.205-2.926-5.07c-0.654-1.969-0.984-4.035-0.975-6.109
				c-0.006-3.021,0.613-6.01,1.818-8.779c1.141-2.83,2.818-5.412,4.941-7.605c2.135-2.262,4.697-4.074,7.543-5.332
				c2.996-1.369,6.262-2.059,9.557-2.016c2.234-0.037,4.453,0.406,6.502,1.301c1.85,0.764,3.514,1.918,4.877,3.381
				c1.322,1.488,2.316,3.238,2.924,5.137c0.725,2.09,1.078,4.289,1.041,6.5c-0.027,3.016-0.645,5.998-1.82,8.777
				c-2.352,5.789-6.848,10.447-12.553,13.002C1156.11,107.045,1152.824,107.579,1149.543,107.383z M1151.295,99.061
				c1.541-0.018,3.055-0.398,4.422-1.105c1.445-0.791,2.744-1.824,3.838-3.057c1.135-1.348,2.055-2.857,2.73-4.486
				c0.654-1.77,0.986-3.643,0.975-5.531c0.156-2.32-0.51-4.623-1.885-6.5c-1.256-1.588-3.18-2.5-5.201-2.471
				c-1.541,0.021-3.057,0.398-4.426,1.107c-1.447,0.813-2.746,1.867-3.834,3.119c-1.15,1.326-2.053,2.846-2.666,4.488
				c-0.713,1.73-1.066,3.59-1.041,5.461c-0.123,2.318,0.541,4.609,1.885,6.502c1.256,1.59,3.18,2.504,5.205,2.473H1151.295z"/>
			<path id="Path_3533" fill="#5CA6DB" d="M1184.717,68.374h8.518l-1.365,6.504c1.811-2.158,4.016-3.945,6.5-5.27
				c2.35-1.295,4.99-1.967,7.67-1.951c1.938-0.039,3.852,0.385,5.592,1.236c1.627,0.766,3.053,1.902,4.16,3.316
				c1.18,1.498,2.082,3.193,2.666,5.008c0.607,1.979,0.912,4.039,0.91,6.111c-0.084,6.17-2.393,12.104-6.502,16.709
				c-1.828,2.152-4.029,3.959-6.5,5.33c-2.428,1.275-5.127,1.947-7.869,1.949c-2.475,0.102-4.916-0.605-6.955-2.014
				c-1.846-1.334-3.178-3.262-3.771-5.461l-4.746,22.301h-10.074L1184.717,68.374z M1197.069,99.061
				c1.578-0.01,3.125-0.436,4.486-1.234c1.443-0.793,2.723-1.85,3.771-3.123c1.102-1.369,1.98-2.904,2.6-4.549
				c0.691-1.625,1.045-3.373,1.039-5.139c0.074-2.342-0.66-4.637-2.08-6.5c-1.309-1.709-3.379-2.658-5.529-2.537
				c-0.93-0.008-1.854,0.146-2.73,0.455c-0.943,0.338-1.84,0.797-2.666,1.365c-0.898,0.602-1.748,1.275-2.535,2.016
				c-0.748,0.789-1.402,1.662-1.951,2.602l-1.949,8.973c0.299,2.039,1.205,3.943,2.6,5.461
				C1193.371,98.272,1195.178,99.081,1197.069,99.061L1197.069,99.061z"/>
			<path id="Path_3534" fill="#5CA6DB" d="M1239.459,107.385c-2.23,0.047-4.445-0.371-6.502-1.236
				c-1.869-0.732-3.557-1.865-4.939-3.318c-1.383-1.48-2.445-3.229-3.121-5.137c-0.732-2.09-1.084-4.291-1.041-6.502
				c-0.025-3.105,0.596-6.182,1.82-9.033c1.221-2.797,2.965-5.334,5.135-7.477c2.221-2.17,4.822-3.91,7.674-5.137
				c3.004-1.26,6.234-1.902,9.494-1.887c3.523-0.184,7.012,0.773,9.947,2.732c2.479,1.861,3.869,4.832,3.707,7.928
				c0,8.256-7.348,12.352-22.105,12.352h-5.592v0.91c-0.148,2.301,0.467,4.586,1.75,6.502c1.34,1.66,3.404,2.561,5.531,2.406
				c1.928,0.004,3.826-0.465,5.531-1.365c1.689-0.912,3.104-2.258,4.096-3.902l7.801,2.406c-1.031,1.477-2.23,2.83-3.574,4.029
				c-1.424,1.252-2.996,2.324-4.684,3.188c-1.674,0.881-3.439,1.58-5.266,2.078c-1.859,0.375-3.76,0.529-5.656,0.457
				L1239.459,107.385z M1246.547,74.878c-1.361-0.014-2.709,0.252-3.965,0.779c-1.191,0.506-2.293,1.209-3.25,2.08
				c-0.959,0.902-1.789,1.93-2.471,3.055c-0.766,1.141-1.355,2.393-1.75,3.705h4.475c1.992,0.152,3.992,0.152,5.982,0
				c1.363-0.199,2.693-0.57,3.963-1.104c0.838-0.391,1.574-0.969,2.146-1.691c0.439-0.701,0.668-1.514,0.65-2.342
				c0.08-1.277-0.543-2.5-1.625-3.184c-1.217-0.867-2.668-1.346-4.162-1.367L1246.547,74.878z"/>
		</g>
	</g>
</g>
</svg>
