<svg xmlns="http://www.w3.org/2000/svg" xmlns:xlink="http://www.w3.org/1999/xlink" width="2048" height="2048" viewBox="0 0 2048 2048">
  <defs>
    <linearGradient id="linear-gradient" x1="-44.625" y1="0.5" x2="13.354" y2="0.5" gradientUnits="objectBoundingBox">
      <stop offset="0" stop-color="#4076b1"/>
      <stop offset="0.13" stop-color="#4782bc"/>
      <stop offset="0.45" stop-color="#559ad2"/>
      <stop offset="0.75" stop-color="#5da9df"/>
      <stop offset="1" stop-color="#60aee4"/>
    </linearGradient>
    <linearGradient id="linear-gradient-2" x1="-0.104" y1="0.5" x2="57.886" y2="0.5" xlink:href="#linear-gradient"/>
    <linearGradient id="linear-gradient-3" x1="-2.113" y1="0.5" x2="10.395" y2="0.5" xlink:href="#linear-gradient"/>
    <linearGradient id="linear-gradient-4" x1="-4.235" y1="0.5" x2="6.84" y2="0.5" xlink:href="#linear-gradient"/>
    <linearGradient id="linear-gradient-5" x1="-3.827" y1="0.502" x2="10.011" y2="0.502" xlink:href="#linear-gradient"/>
    <linearGradient id="linear-gradient-6" x1="-12.877" y1="0.502" x2="0.954" y2="0.502" xlink:href="#linear-gradient"/>
    <linearGradient id="linear-gradient-7" x1="-4.836" y1="0.5" x2="3.027" y2="0.5" xlink:href="#linear-gradient"/>
    <linearGradient id="linear-gradient-8" x1="-10.144" y1="0.5" x2="2.242" y2="0.5" xlink:href="#linear-gradient"/>
    <linearGradient id="linear-gradient-9" x1="-0.567" y1="0.5" x2="10.595" y2="0.5" xlink:href="#linear-gradient"/>
    <linearGradient id="linear-gradient-10" x1="-5.512" y1="0.5" x2="5.649" y2="0.5" xlink:href="#linear-gradient"/>
    <linearGradient id="linear-gradient-11" x1="-0.068" y1="0.942" x2="0.757" y2="0.252" xlink:href="#linear-gradient"/>
    <linearGradient id="linear-gradient-12" x1="0.008" y1="0.83" x2="0.821" y2="0.284" xlink:href="#linear-gradient"/>
    <linearGradient id="linear-gradient-13" x1="-0.074" y1="0.787" x2="1.171" y2="0.173" xlink:href="#linear-gradient"/>
    <linearGradient id="linear-gradient-14" x1="-0.319" y1="1.49" x2="2.179" y2="-0.948" xlink:href="#linear-gradient"/>
    <linearGradient id="linear-gradient-15" x1="-0.299" y1="1.101" x2="2.016" y2="-0.623" xlink:href="#linear-gradient"/>
    <linearGradient id="linear-gradient-16" x1="-0.003" y1="0.628" x2="1.007" y2="0.38" xlink:href="#linear-gradient"/>
    <clipPath id="clip-Logo_color_1">
      <rect width="2048" height="2048"/>
    </clipPath>
  </defs>
  <g id="Logo_color_1" data-name="Logo color – 1" clip-path="url(#clip-Logo_color_1)">
    <rect width="2048" height="2048" fill="#fff"/>
    <g id="Group_39" data-name="Group 39">
      <rect id="Rectangle_29" data-name="Rectangle 29" width="31.119" height="156.539" transform="translate(1505.103 1199.131)" fill="url(#linear-gradient)"/>
      <rect id="Rectangle_30" data-name="Rectangle 30" width="31.119" height="156.539" transform="translate(119.575 1199.131)" fill="url(#linear-gradient-2)"/>
      <path id="Path_3495" data-name="Path 3495" d="M94.845,87.62H38.28v29.307H94.845V244.08h31.119V116.927h56.565V87.62H94.845Z" transform="translate(382.87 1111.51)" fill="url(#linear-gradient-3)"/>
      <path id="Path_3496" data-name="Path 3496" d="M239,391.107a44.591,44.591,0,0,0,36.161-47.269c0-43.093-43.172-44.117-43.172-44.117H125V456.337h31.512v-56.8c20.483-15.757,50.184-8.43,50.184-8.43,19.065,50.183,52.153,65.23,52.153,65.23h29.07V422.225H262.079C248.056,417.183,239,391.107,239,391.107Zm-8.509-30.647H188.025a119.344,119.344,0,0,0-32.143,7.878V328.947h75.236A15.756,15.756,0,0,1,246.165,344.7S248.056,358.018,230.488,360.46Z" transform="translate(681.312 899.331)" fill="url(#linear-gradient-4)"/>
      <path id="Path_3497" data-name="Path 3497" d="M131.879,396.541a53.573,53.573,0,0,1,30.094-5.908h42.621V360.538H165.2a99.033,99.033,0,0,0-33.561,7.878V329.025H224.92V299.64H100.76V456.888H231.143V426.793H131.879Z" transform="translate(514.586 898.78)" fill="url(#linear-gradient-5)"/>
      <path id="Path_3498" data-name="Path 3498" d="M281.788,426.793V396.541a53.651,53.651,0,0,1,30.1-5.909H354.5V360.538H315.114a99.037,99.037,0,0,0-33.561,7.878V329.025H374.83V299.64H250.67V456.888H381.132V426.793Z" transform="translate(1545.688 898.78)" fill="url(#linear-gradient-6)"/>
      <path id="Path_3499" data-name="Path 3499" d="M293.286,202.011h-.079l-22.453-64.68L254.6,90.771,253.58,87.62H220.965l16.544,48.529-24.737,65.861h-.079L173.065,87.62H140.45l53.414,156.46h36.87l22.847-60.9,20.8,60.9h36.87L369.94,87.62H336.3Z" transform="translate(1085.61 1111.51)" fill="url(#linear-gradient-7)"/>
      <path id="Path_3500" data-name="Path 3500" d="M299.921,366.24c-21.114-2.284-39.391-6.145-39.391-20.01,0-11.817,11.817-21.114,36.4-21.114a54.359,54.359,0,0,1,40.178,15.756l19.3-21.98c-14.89-15.2-38.051-19.932-60.425-19.932-32.379,0-68.067,13.63-68.067,46.324,0,35.688,33.167,44.275,69.013,48.135,23.634,2.285,40.73,8.43,40.73,23.635,0,17.254-19.617,23.634-40.415,23.634s-41.675-7.878-49.475-25.211L225,437.143c14.417,22.373,39.785,30.409,71.849,30.409,39.391,0,73.818-15.2,73.818-50.656C370.667,379,336.555,370.179,299.921,366.24Z" transform="translate(1369.126 894.137)" fill="url(#linear-gradient-8)"/>
      <path id="Path_3501" data-name="Path 3501" d="M141.761,192.951,56.6,95.262,49.98,87.62H11.22V90.3l14.338,16.859V244.08H56.6V143.791L141.761,244.08h31.119V87.62H141.761Z" transform="translate(196.748 1111.51)" fill="url(#linear-gradient-9)"/>
      <path id="Path_3502" data-name="Path 3502" d="M243.241,192.951,158.078,95.262l-6.618-7.642H112.7V90.3l14.338,16.859V244.08h31.04V143.791L243.241,244.08h31.119V87.62H243.241Z" transform="translate(894.741 1111.51)" fill="url(#linear-gradient-10)"/>
      <path id="Path_3503" data-name="Path 3503" d="M70.823,373.888,58.06,333H71.374l7.878,30.252L100.05,333h13.157L82.876,373.888l-4.648,22.138H66.174Z" transform="translate(220.89 1130.032)" fill="#59a6de"/>
      <path id="Path_3504" data-name="Path 3504" d="M82.084,383.072a20,20,0,0,1-7.878-1.577A17.092,17.092,0,0,1,68.3,377.32a19.7,19.7,0,0,1-3.467-6.145,21.192,21.192,0,0,1-1.26-7.405,27.972,27.972,0,0,1,2.206-10.635,30.027,30.027,0,0,1,5.987-9.218,29.47,29.47,0,0,1,9.217-6.46,26.8,26.8,0,0,1,11.581-2.443,18.28,18.28,0,0,1,7.878,1.576,16.872,16.872,0,0,1,5.908,4.1,17.5,17.5,0,0,1,3.624,6.224,22.928,22.928,0,0,1,1.182,7.878,26.546,26.546,0,0,1-2.206,10.635,29.152,29.152,0,0,1-5.987,9.139,30.48,30.48,0,0,1-9.139,6.46A27.022,27.022,0,0,1,82.084,383.072Zm2.048-10.084a11.738,11.738,0,0,0,5.357-1.34,16.382,16.382,0,0,0,4.648-3.7,18.977,18.977,0,0,0,3.309-5.436,17.489,17.489,0,0,0,1.261-6.7,12.447,12.447,0,0,0-2.285-7.878,7.879,7.879,0,0,0-6.3-2.994,11.988,11.988,0,0,0-5.357,1.339,16.388,16.388,0,0,0-4.648,3.782,19.69,19.69,0,0,0-3.309,5.435,18.28,18.28,0,0,0-1.182,6.619,11.972,11.972,0,0,0,2.285,7.878A7.878,7.878,0,0,0,84.133,372.988Z" transform="translate(258.787 1143.852)" fill="#59a6de"/>
      <path id="Path_3505" data-name="Path 3505" d="M81.359,382.379c-7.327,0-10.951-3.781-10.951-11.344a23.632,23.632,0,0,1,0-3.23,36.481,36.481,0,0,1,.709-3.623l6.145-29.071H89.079l-5.593,26.47a5.937,5.937,0,0,1-.473,2.364,19.446,19.446,0,0,0,0,2.048c0,4.175,1.812,6.3,5.357,6.3a12.293,12.293,0,0,0,6.46-2.128,19.767,19.767,0,0,0,6.224-6.3L107.2,335.11h11.817l-6.933,32.773a2.836,2.836,0,0,0,0,.788,2.984,2.984,0,0,0,0,.788c0,1.26.709,1.891,2.127,1.97l-2.285,10.084-2.757.394h-2.206a8.51,8.51,0,0,1-4.806-1.26,4.571,4.571,0,0,1-1.733-3.782V375.21a22.6,22.6,0,0,1,.551-2.6,27.887,27.887,0,0,1-9.06,7.169A24.9,24.9,0,0,1,81.359,382.379Z" transform="translate(305.443 1144.545)" fill="#59a6de"/>
      <path id="Path_3506" data-name="Path 3506" d="M86.768,335.8H97.64l-2.127,9.927a28.683,28.683,0,0,1,7.878-7.879,14.581,14.581,0,0,1,8.272-2.836h2.127l-2.206,10.478a23.64,23.64,0,0,0-9.454,2.127,15.758,15.758,0,0,0-7.09,5.987l-6.224,28.6H76.92Z" transform="translate(350.611 1143.858)" fill="#59a6de"/>
      <path id="Path_3507" data-name="Path 3507" d="M97.5,333h12.132L96.242,396.026H84.11Z" transform="translate(400.065 1130.032)" fill="#59a6de"/>
      <path id="Path_3508" data-name="Path 3508" d="M97.1,335.808h10.714L106,344.4a23.005,23.005,0,0,1,8.509-6.933,24.41,24.41,0,0,1,10.872-2.443,11.658,11.658,0,0,1,4.963.867,7.879,7.879,0,0,1,3.23,2.206,8.35,8.35,0,0,1,1.654,3.467,17.323,17.323,0,0,1,.473,4.175,31.522,31.522,0,0,1,0,3.7,21.017,21.017,0,0,1-.63,3.782L128.69,382.21H116.873l5.515-26.076v-2.442a11.606,11.606,0,0,0,0-2.206,6.381,6.381,0,0,0-1.339-4.569,4.962,4.962,0,0,0-3.7-1.419,11.123,11.123,0,0,0-3.388.63,15.2,15.2,0,0,0-3.624,2.049,17.847,17.847,0,0,0-3.388,3.073,18.43,18.43,0,0,0-2.6,3.86l-5.2,27.1H87.33Z" transform="translate(422.213 1143.847)" fill="#59a6de"/>
      <path id="Path_3509" data-name="Path 3509" d="M104.3,395.437a11.98,11.98,0,0,1-6.933-1.891,7.17,7.17,0,0,1-2.679-6.3,13.936,13.936,0,0,1,0-3.23l5.593-26.628H94.53l1.97-9.139h5.672l3.151-15.046h11.9l-3.151,15.046h9.217l-1.418,9.139h-9.3L107.686,380a2.993,2.993,0,0,0,0,.787,1.731,1.731,0,0,0,0,.63,2.835,2.835,0,0,0,.945,2.442,3.938,3.938,0,0,0,2.442.71,10.721,10.721,0,0,0,3.466-.63,18.479,18.479,0,0,0,2.994-1.1v9.375a32.609,32.609,0,0,1-6.145,2.206,26.006,26.006,0,0,1-7.09,1.024Z" transform="translate(471.735 1131.408)" fill="#59a6de"/>
      <path id="Path_3510" data-name="Path 3510" d="M117.263,383.16a19.628,19.628,0,0,1-7.878-1.5,17.091,17.091,0,0,1-5.909-4.018,17.888,17.888,0,0,1-3.781-6.223,22.539,22.539,0,0,1-1.261-7.878,27.181,27.181,0,0,1,2.206-10.951,27.732,27.732,0,0,1,6.224-9.06,29.308,29.308,0,0,1,20.8-8.508,19.856,19.856,0,0,1,12.054,3.31,11.344,11.344,0,0,1,4.412,9.611c0,10-8.9,14.968-26.707,14.968h-6.775v1.1a13.236,13.236,0,0,0,2.048,7.878,7.88,7.88,0,0,0,6.775,2.915,14.254,14.254,0,0,0,6.7-1.655,13.63,13.63,0,0,0,4.963-4.727l9.375,2.915a22.99,22.99,0,0,1-4.333,4.884,25.212,25.212,0,0,1-5.593,3.861,30.6,30.6,0,0,1-6.46,2.52,28.04,28.04,0,0,1-6.854.551Zm8.587-39.391a12.144,12.144,0,0,0-4.806.946,13.942,13.942,0,0,0-3.939,2.521,20.75,20.75,0,0,0-3.072,3.7,19.224,19.224,0,0,0-2.048,4.491h5.436a48.221,48.221,0,0,0,7.248,0,18.047,18.047,0,0,0,4.727-1.34,6.851,6.851,0,0,0,2.679-2.049,5.9,5.9,0,0,0,.788-2.836,4.411,4.411,0,0,0-1.97-3.86,9.058,9.058,0,0,0-5.042-1.655Z" transform="translate(498.556 1143.765)" fill="#59a6de"/>
      <path id="Path_3511" data-name="Path 3511" d="M114.054,335.8h10.872l-2.127,9.927a27.339,27.339,0,0,1,7.878-7.878,14.812,14.812,0,0,1,8.351-2.837h2.127l-2.206,10.478a24.43,24.43,0,0,0-9.532,2.127A15.762,15.762,0,0,0,122.4,353.6l-5.987,28.046H104.6Z" transform="translate(540.998 1143.858)" fill="#59a6de"/>
      <path id="Path_3512" data-name="Path 3512" d="M118.533,335.81h10.714l-1.891,8.587a24.261,24.261,0,0,1,8.509-6.933,24.891,24.891,0,0,1,10.872-2.442,11.821,11.821,0,0,1,5.042.866,7.868,7.868,0,0,1,3.151,2.206,8.427,8.427,0,0,1,1.733,3.467,17.315,17.315,0,0,1,.473,4.175,31.462,31.462,0,0,1,0,3.7,8,8,0,0,1-.63,3.782l-6.145,28.991H138.543l5.436-26.076.473-2.442v-2.207a6.7,6.7,0,0,0-1.339-4.569,4.963,4.963,0,0,0-3.7-1.418,11.985,11.985,0,0,0-3.466.63,16.868,16.868,0,0,0-3.624,2.049,20.149,20.149,0,0,0-3.309,3.072,18.422,18.422,0,0,0-2.6,3.861l-5.751,27.1H109Z" transform="translate(571.262 1143.845)" fill="#59a6de"/>
      <path id="Path_3513" data-name="Path 3513" d="M133.806,383.347a29.089,29.089,0,0,1-10.478-1.891,19.394,19.394,0,0,1-7.878-5.278l5.988-7.406a21.036,21.036,0,0,0,14.1,5.83,9.533,9.533,0,0,0,5.83-1.576,5.278,5.278,0,0,0,2.127-4.411,3.388,3.388,0,0,0-1.891-3.073,33.612,33.612,0,0,0-6.145-2.364c-2.364-.709-4.333-1.418-6.066-2.048a18.727,18.727,0,0,1-4.175-2.285,7.874,7.874,0,0,1-2.363-2.757,8.747,8.747,0,0,1-.709-3.624,15.208,15.208,0,0,1,1.654-7.091,15.756,15.756,0,0,1,4.569-5.515,20.248,20.248,0,0,1,6.7-3.624,26.274,26.274,0,0,1,16.781.236,17.962,17.962,0,0,1,7.09,4.885l-6.3,7.17a20.563,20.563,0,0,0-5.672-3.939,15.2,15.2,0,0,0-5.909-1.181,9.3,9.3,0,0,0-5.357,1.5,5.044,5.044,0,0,0-2.206,4.569,3.073,3.073,0,0,0,1.654,2.836,29.183,29.183,0,0,0,5.672,2.127A35.857,35.857,0,0,1,151.768,359a7.878,7.878,0,0,1,3.545,6.933,15.754,15.754,0,0,1-1.576,6.933,16.383,16.383,0,0,1-4.412,5.436,22.141,22.141,0,0,1-6.775,3.546,30.28,30.28,0,0,1-8.745,1.5Z" transform="translate(615.626 1143.578)" fill="#59a6de"/>
      <path id="Path_3514" data-name="Path 3514" d="M135.037,332.8h11.9l-5.751,26.786a23.639,23.639,0,0,1,7.878-6.933,20.008,20.008,0,0,1,9.611-2.521,12.356,12.356,0,0,1,5.2.866,8.9,8.9,0,0,1,3.388,2.285,8.591,8.591,0,0,1,1.812,3.466,18.53,18.53,0,0,1,.551,4.255,28.916,28.916,0,0,1,0,3.624,27.972,27.972,0,0,1-.709,3.7l-6.066,28.991H150.793l5.515-26.076a24.14,24.14,0,0,0,.551-4.333c0-4.176-1.812-6.3-5.436-6.3a10.17,10.17,0,0,0-3.151.63,16.475,16.475,0,0,0-3.545,2.048,23.639,23.639,0,0,0-3.23,3.072,18.451,18.451,0,0,0-2.6,3.86l-5.751,27.1h-11.9Z" transform="translate(655.519 1128.657)" fill="#59a6de"/>
      <path id="Path_3515" data-name="Path 3515" d="M137.709,351h11.9l-9.847,46.4H127.94Zm3.939-18.2h11.817l-2.442,11.739h-11.9Z" transform="translate(701.534 1128.657)" fill="#59a6de"/>
      <path id="Path_3516" data-name="Path 3516" d="M144.3,335.87h10.4l-1.654,7.878a25.6,25.6,0,0,1,7.878-6.38,18.984,18.984,0,0,1,9.3-2.365,14.736,14.736,0,0,1,6.775,1.5,13.943,13.943,0,0,1,5.042,4.018,19.463,19.463,0,0,1,3.23,6.066,25.141,25.141,0,0,1,1.1,7.406,31.036,31.036,0,0,1-7.878,20.246,28.434,28.434,0,0,1-7.878,6.46,20.561,20.561,0,0,1-9.532,2.364,13.869,13.869,0,0,1-8.43-2.442A12.053,12.053,0,0,1,148.077,374l-5.751,27.022h-11.9Zm14.968,37.185a10.481,10.481,0,0,0,5.436-1.5,15.764,15.764,0,0,0,4.648-3.782,20.086,20.086,0,0,0,3.151-5.515,16.774,16.774,0,0,0,1.182-6.224,12.288,12.288,0,0,0-2.442-7.878,7.876,7.876,0,0,0-6.7-3.072,9.678,9.678,0,0,0-3.308.552,13.921,13.921,0,0,0-3.23,1.654,23.611,23.611,0,0,0-3.073,2.442,17.318,17.318,0,0,0-2.364,3.151L150.2,363.758a12.449,12.449,0,0,0,3.151,6.617A7.878,7.878,0,0,0,159.264,373.055Z" transform="translate(718.661 1143.786)" fill="#59a6de"/>
      <path id="Path_3517" data-name="Path 3517" d="M164.018,397.012a38.822,38.822,0,0,1-12.841-2.127,31.5,31.5,0,0,1-10.557-6.066l7.878-10.477a6.925,6.925,0,0,0,2.048,2.048,26.477,26.477,0,0,0,4.1,2.6,28.546,28.546,0,0,0,5.594,2.127,22.23,22.23,0,0,0,6.539.867,12.457,12.457,0,0,0,7.878-2.049,6.777,6.777,0,0,0,2.6-5.515,4.253,4.253,0,0,0-1.024-2.915,8.744,8.744,0,0,0-2.757-2.206,21.569,21.569,0,0,0-4.254-1.811c-1.576-.552-3.387-1.182-5.357-1.734a26.709,26.709,0,0,1-10.084-5.121,10.714,10.714,0,0,1-3.466-8.429,21.506,21.506,0,0,1,2.206-9.769,22.446,22.446,0,0,1,5.909-7.327,25.989,25.989,0,0,1,8.508-4.569,32.9,32.9,0,0,1,10.084-1.576A28.036,28.036,0,0,1,188.2,335.09a34.744,34.744,0,0,1,8.272,4.884L188.6,349.9a7.891,7.891,0,0,0-1.655-1.654,20.137,20.137,0,0,0-3.309-2.127,29.645,29.645,0,0,0-4.491-1.733,18.66,18.66,0,0,0-5.121-.709,11.583,11.583,0,0,0-7.878,2.364,7.878,7.878,0,0,0-2.678,6.066,4.1,4.1,0,0,0,.788,2.6,5.988,5.988,0,0,0,2.206,1.969,22.621,22.621,0,0,0,3.624,1.576l4.963,1.5a44.329,44.329,0,0,1,6.46,2.206,17.661,17.661,0,0,1,4.885,2.993,11.433,11.433,0,0,1,3.151,4.1,13.7,13.7,0,0,1,1.1,5.672,21.5,21.5,0,0,1-2.284,10.164,20.646,20.646,0,0,1-6.067,6.932,23.633,23.633,0,0,1-8.508,3.939,38.007,38.007,0,0,1-9.769,1.261Z" transform="translate(788.749 1129.754)" fill="#59a6de"/>
      <path id="Path_3518" data-name="Path 3518" d="M160.71,335.87h10.32l-1.654,7.878a26.636,26.636,0,0,1,7.878-6.381A19.069,19.069,0,0,1,186.629,335a14.423,14.423,0,0,1,6.7,1.5,14.894,14.894,0,0,1,5.121,4.018,19.318,19.318,0,0,1,3.151,6.066,25.124,25.124,0,0,1,1.1,7.406,30.479,30.479,0,0,1-2.048,11.029,31.5,31.5,0,0,1-5.436,9.218,29.914,29.914,0,0,1-7.878,6.46,20.558,20.558,0,0,1-9.533,2.364,13.871,13.871,0,0,1-8.43-2.442,12.448,12.448,0,0,1-4.57-6.618l-5.751,27.023h-11.9Zm14.968,37.185a10.482,10.482,0,0,0,5.436-1.5,15.765,15.765,0,0,0,4.569-3.782,22.512,22.512,0,0,0,3.23-5.515,16.785,16.785,0,0,0,1.182-6.224,12.371,12.371,0,0,0-2.521-7.878,7.876,7.876,0,0,0-6.7-3.072,10.062,10.062,0,0,0-3.309.552,13.949,13.949,0,0,0-3.23,1.654,22.458,22.458,0,0,0-2.993,2.442,17.864,17.864,0,0,0-2.442,3.151l-2.364,10.872a12.448,12.448,0,0,0,3.151,6.618,7.877,7.877,0,0,0,5.987,2.679Z" transform="translate(833.732 1143.786)" fill="#59a6de"/>
      <path id="Path_3519" data-name="Path 3519" d="M173.811,383.158a19.229,19.229,0,0,1-7.878-1.5,16.693,16.693,0,0,1-5.987-4.018,17.871,17.871,0,0,1-3.781-6.224,22.532,22.532,0,0,1-1.261-7.878,26,26,0,0,1,2.285-10.95,28.836,28.836,0,0,1,6.145-9.06,31.518,31.518,0,0,1,9.3-6.223,29.469,29.469,0,0,1,11.581-2.285,19.777,19.777,0,0,1,11.975,3.309,11.266,11.266,0,0,1,4.49,9.611c0,10.005-8.9,14.969-26.785,14.969h-6.775v1.1a12.683,12.683,0,0,0,2.127,7.878,7.877,7.877,0,0,0,6.7,2.915,14.026,14.026,0,0,0,6.7-1.654,13.238,13.238,0,0,0,5.042-4.726l9.375,2.914a25.363,25.363,0,0,1-4.333,4.884,27.761,27.761,0,0,1-5.672,3.86,29.965,29.965,0,0,1-6.381,2.521,28.706,28.706,0,0,1-6.854.552Zm8.587-39.391a11.833,11.833,0,0,0-4.727.946,12.049,12.049,0,0,0-3.939,2.521,15.763,15.763,0,0,0-3.073,3.7,23.615,23.615,0,0,0-2.127,4.491h5.515a47.354,47.354,0,0,0,7.169,0,19.788,19.788,0,0,0,4.806-1.339,7.18,7.18,0,0,0,2.6-2.049,5.122,5.122,0,0,0,.788-2.836,4.253,4.253,0,0,0-1.97-3.86,8.656,8.656,0,0,0-5.042-1.655Z" transform="translate(886.965 1143.767)" fill="#59a6de"/>
      <path id="Path_3520" data-name="Path 3520" d="M179.873,383.295a19.861,19.861,0,0,1-7.878-1.575,17.41,17.41,0,0,1-5.987-4.176,18.03,18.03,0,0,1-3.545-6.224,23.626,23.626,0,0,1-1.182-7.484,27.961,27.961,0,0,1,2.127-10.714,29.627,29.627,0,0,1,15.2-15.757A28.843,28.843,0,0,1,190.272,335a19.073,19.073,0,0,1,11.739,3.309,14.734,14.734,0,0,1,5.751,8.588l-12.132,3.466a7.405,7.405,0,0,0-7.878-5.278,11.888,11.888,0,0,0-5.357,1.26,13.468,13.468,0,0,0-4.569,3.624,16.863,16.863,0,0,0-3.23,5.436,17.331,17.331,0,0,0-1.261,6.775,12.447,12.447,0,0,0,2.364,7.878,7.881,7.881,0,0,0,6.224,2.994,11.352,11.352,0,0,0,5.594-1.577,12.443,12.443,0,0,0,4.333-3.938l10.793,3.545a26.159,26.159,0,0,1-9.375,8.667,26.473,26.473,0,0,1-13.393,3.544Z" transform="translate(930.851 1143.63)" fill="#59a6de"/>
      <path id="Path_3521" data-name="Path 3521" d="M177.137,351h11.5l-9.454,46.4h-11.9ZM181,332.8h11.9l-2.521,11.739H178.556Z" transform="translate(972.189 1128.657)" fill="#59a6de"/>
      <path id="Path_3522" data-name="Path 3522" d="M186.911,383.068a15.219,15.219,0,0,1-6.933-1.5,13.55,13.55,0,0,1-5.121-4.018,15.763,15.763,0,0,1-3.23-6.066,22.94,22.94,0,0,1-1.1-7.485,29.463,29.463,0,0,1,2.049-11.03,30.41,30.41,0,0,1,5.593-9.218,26.706,26.706,0,0,1,7.878-6.38,20.4,20.4,0,0,1,9.611-2.363,13.231,13.231,0,0,1,7.878,2.442,12.684,12.684,0,0,1,4.648,6.46l1.733-7.878h11.9l-6.933,32.616a6.932,6.932,0,0,0,0,1.576c0,1.261.709,1.891,2.127,1.97l-2.127,10.084-2.836.394h-2.048a7.881,7.881,0,0,1-4.884-1.34,4.648,4.648,0,0,1-1.891-4.018,21.934,21.934,0,0,1,.551-3.387,21.9,21.9,0,0,1-7.878,6.7A20.963,20.963,0,0,1,186.911,383.068Zm5.357-10.085a12.6,12.6,0,0,0,3.23-.551,14.425,14.425,0,0,0,3.309-1.655,21.969,21.969,0,0,0,2.994-2.521,18.194,18.194,0,0,0,2.442-3.073l2.285-11.029a10.955,10.955,0,0,0-3.151-6.461,7.878,7.878,0,0,0-5.909-2.6,11.725,11.725,0,0,0-5.515,1.418,16.932,16.932,0,0,0-4.648,3.939,22.289,22.289,0,0,0-3.152,5.514,16.775,16.775,0,0,0-1.182,6.224,12.053,12.053,0,0,0,2.442,7.878A8.352,8.352,0,0,0,192.268,372.984Z" transform="translate(994.402 1143.856)" fill="#59a6de"/>
      <path id="Path_3523" data-name="Path 3523" d="M187.038,398.11a9.926,9.926,0,0,1-6.854-2.127A7.879,7.879,0,0,1,177.742,390a11.719,11.719,0,0,1,0-1.575,7.859,7.859,0,0,1,0-1.733l11.5-53.887h11.738L190.5,382.511a4.081,4.081,0,0,0,0,.867v.866a3.309,3.309,0,0,0,3.7,3.7,8.723,8.723,0,0,0,2.206-.394l2.442-.866-.394,8.981a23.636,23.636,0,0,1-5.751,1.813A32.772,32.772,0,0,1,187.038,398.11Z" transform="translate(1043.749 1128.657)" fill="#59a6de"/>
      <path id="Path_3524" data-name="Path 3524" d="M190.968,351h11.817l-9.769,46.4h-11.9Zm3.86-18.2h11.9L204.2,344.539H192.386Z" transform="translate(1067.314 1128.657)" fill="#59a6de"/>
      <path id="Path_3525" data-name="Path 3525" d="M202.335,383.235a29.773,29.773,0,0,1-10.557-1.891,19.064,19.064,0,0,1-7.878-5.279l5.987-7.405a21.041,21.041,0,0,0,14.023,6.067,9.7,9.7,0,0,0,5.83-1.576,5.279,5.279,0,0,0,2.127-4.412,3.387,3.387,0,0,0-1.891-3.073,33.553,33.553,0,0,0-6.145-2.364c-2.363-.709-4.411-1.418-6.066-2.048a18.72,18.72,0,0,1-4.175-2.285,7.869,7.869,0,0,1-2.364-2.757,8.737,8.737,0,0,1-.788-3.623,15.205,15.205,0,0,1,1.733-7.091,15.76,15.76,0,0,1,4.569-5.515,20.249,20.249,0,0,1,6.7-3.624,26.782,26.782,0,0,1,16.938,0,17.956,17.956,0,0,1,7.091,4.885l-6.3,7.169a20.581,20.581,0,0,0-5.672-3.939,15.206,15.206,0,0,0-5.908-1.182,9.294,9.294,0,0,0-5.357,1.5,5.042,5.042,0,0,0-2.206,4.57,3.072,3.072,0,0,0,1.655,2.835,29.148,29.148,0,0,0,5.672,2.128,35.831,35.831,0,0,1,10.95,4.569,7.878,7.878,0,0,1,3.545,6.933,15.752,15.752,0,0,1-1.576,6.932,16.386,16.386,0,0,1-4.412,5.437,22.139,22.139,0,0,1-6.775,3.544,30.252,30.252,0,0,1-8.745,1.5Z" transform="translate(1086.435 1143.689)" fill="#59a6de"/>
      <path id="Path_3526" data-name="Path 3526" d="M199.974,395.437a11.663,11.663,0,0,1-6.933-1.891,7.169,7.169,0,0,1-2.757-6.3,13.93,13.93,0,0,1,.394-3.23l5.672-26.628H190.6l1.891-9.139h5.672l3.23-15.046H213.21l-3.151,15.046h9.69l-1.969,9.139h-9.218L203.677,380v1.418a2.835,2.835,0,0,0,.946,2.442,3.941,3.941,0,0,0,2.442.709,10.387,10.387,0,0,0,3.466-.63,18.55,18.55,0,0,0,2.994-1.1v9.375a30.7,30.7,0,0,1-6.145,2.206,25.438,25.438,0,0,1-7.406,1.024Z" transform="translate(1130.155 1131.408)" fill="#59a6de"/>
      <path id="Path_3527" data-name="Path 3527" d="M206.718,351h11.817l-9.769,46.4h-11.9Zm3.86-18.2h11.9l-2.521,11.739H208.136Z" transform="translate(1175.644 1128.657)" fill="#59a6de"/>
      <path id="Path_3528" data-name="Path 3528" d="M210.071,335.81h10.714L218.9,344.4a23.621,23.621,0,0,1,8.508-6.932,24.423,24.423,0,0,1,10.872-2.443,11.412,11.412,0,0,1,4.963.867,7.871,7.871,0,0,1,3.23,2.206,8.352,8.352,0,0,1,1.654,3.466,17.26,17.26,0,0,1,.552,4.176v3.7a31.53,31.53,0,0,1-.709,3.782L241.9,382.212H230l5.515-26.076v-2.442a12.45,12.45,0,0,0,0-2.207,6.38,6.38,0,0,0-1.418-4.569,4.73,4.73,0,0,0-3.624-1.418,11.612,11.612,0,0,0-3.467.63,15.228,15.228,0,0,0-3.624,2.049,20.149,20.149,0,0,0-3.309,3.072,22.459,22.459,0,0,0-2.679,3.861l-5.751,27.1H199.83Z" transform="translate(1196.004 1143.845)" fill="#59a6de"/>
      <path id="Path_3529" data-name="Path 3529" d="M222.953,333h40.73l-2.206,10.714H232.8l-3.23,15.126h24.738l-2.127,9.927H227.443l-3.466,16.387h29.464l-2.363,10.714H209.56Z" transform="translate(1262.928 1130.032)" fill="#59a6de"/>
      <path id="Path_3530" data-name="Path 3530" d="M227.119,382.379c-7.327,0-10.951-3.781-10.951-11.344a23.671,23.671,0,0,1,0-3.23,36.526,36.526,0,0,1,.709-3.623l6.145-29.071h11.817l-5.593,26.47a5.936,5.936,0,0,1-.473,2.364,19.43,19.43,0,0,0,0,2.048c0,4.175,1.734,6.3,5.278,6.3a12.53,12.53,0,0,0,6.539-2.127,19.773,19.773,0,0,0,6.224-6.3l6.145-28.755h11.817l-7.011,32.773v.788a2.987,2.987,0,0,0,0,.788c0,1.26.709,1.891,2.127,1.97l-2.127,10.084-2.758.394H252.8a8.51,8.51,0,0,1-4.806-1.26,4.571,4.571,0,0,1-1.733-3.782V375.21a22.553,22.553,0,0,1,.552-2.6,27.889,27.889,0,0,1-9.06,7.169A24.9,24.9,0,0,1,227.119,382.379Z" transform="translate(1308 1144.545)" fill="#59a6de"/>
      <path id="Path_3531" data-name="Path 3531" d="M232.252,335.8h10.872L241,345.724a28.679,28.679,0,0,1,7.878-7.879,14.579,14.579,0,0,1,8.272-2.836h2.128l-2.206,10.478a23.641,23.641,0,0,0-9.454,2.127,15.757,15.757,0,0,0-7.09,5.987l-5.909,28.046h-11.9Z" transform="translate(1353.444 1143.858)" fill="#59a6de"/>
      <path id="Path_3532" data-name="Path 3532" d="M245.495,383.069a20.571,20.571,0,0,1-7.878-1.576,17.506,17.506,0,0,1-5.83-4.176,18.438,18.438,0,0,1-3.545-6.145,23.161,23.161,0,0,1-1.181-7.406,26.552,26.552,0,0,1,2.205-10.636,28.6,28.6,0,0,1,5.988-9.217,28.274,28.274,0,0,1,9.138-6.46,27.021,27.021,0,0,1,11.581-2.443,18.922,18.922,0,0,1,7.878,1.575,16.865,16.865,0,0,1,5.908,4.1,17.332,17.332,0,0,1,3.546,6.224,22.929,22.929,0,0,1,1.26,7.878,27.956,27.956,0,0,1-2.206,10.635,29.386,29.386,0,0,1-15.205,15.757A27.026,27.026,0,0,1,245.495,383.069Zm2.127-10.084a11.982,11.982,0,0,0,5.357-1.34,17.49,17.49,0,0,0,4.648-3.7,20.9,20.9,0,0,0,3.308-5.437,18.986,18.986,0,0,0,1.182-6.7,11.974,11.974,0,0,0-2.285-7.878,7.877,7.877,0,0,0-6.3-2.993,11.977,11.977,0,0,0-5.357,1.339,17.5,17.5,0,0,0-4.648,3.782,17.823,17.823,0,0,0-3.23,5.436,16.784,16.784,0,0,0-1.261,6.618,12.449,12.449,0,0,0,2.284,7.878A7.879,7.879,0,0,0,247.622,372.985Z" transform="translate(1383.295 1143.855)" fill="#59a6de"/>
      <path id="Path_3533" data-name="Path 3533" d="M247.26,335.87h10.32l-1.654,7.878a26.633,26.633,0,0,1,7.878-6.381A18.989,18.989,0,0,1,273.1,335a14.737,14.737,0,0,1,6.775,1.5,13.933,13.933,0,0,1,5.042,4.018,19.466,19.466,0,0,1,3.23,6.066,25.128,25.128,0,0,1,1.1,7.406,31.038,31.038,0,0,1-7.878,20.246,28.434,28.434,0,0,1-7.878,6.46,20.558,20.558,0,0,1-9.533,2.364,13.872,13.872,0,0,1-8.429-2.442,12.058,12.058,0,0,1-4.57-6.618l-5.751,27.022H233Zm14.968,37.185a10.873,10.873,0,0,0,5.436-1.5,15.762,15.762,0,0,0,4.569-3.782,20.09,20.09,0,0,0,3.151-5.515,15.749,15.749,0,0,0,1.26-6.224,12.366,12.366,0,0,0-2.52-7.878,7.876,7.876,0,0,0-6.7-3.072,9.689,9.689,0,0,0-3.309.552,13.941,13.941,0,0,0-3.23,1.654,23.7,23.7,0,0,0-3.073,2.442,17.318,17.318,0,0,0-2.363,3.151l-2.363,10.872a12.447,12.447,0,0,0,3.151,6.618A7.879,7.879,0,0,0,262.228,373.054Z" transform="translate(1424.151 1143.786)" fill="#59a6de"/>
      <path id="Path_3534" data-name="Path 3534" d="M259.742,383.16a19.241,19.241,0,0,1-7.879-1.5,16.7,16.7,0,0,1-5.987-4.018,17.879,17.879,0,0,1-3.781-6.224,22.535,22.535,0,0,1-1.261-7.879,27.179,27.179,0,0,1,2.206-10.95,29.087,29.087,0,0,1,6.224-9.06,30.575,30.575,0,0,1,9.3-6.224,29.393,29.393,0,0,1,11.5-2.285,19.856,19.856,0,0,1,12.053,3.31,11.265,11.265,0,0,1,4.491,9.61c0,10.005-8.9,14.969-26.786,14.969h-6.775v1.1a12.683,12.683,0,0,0,2.127,7.878,7.88,7.88,0,0,0,6.7,2.915,14.262,14.262,0,0,0,6.7-1.655,13,13,0,0,0,4.963-4.727l9.454,2.915a28.253,28.253,0,0,1-4.333,4.885,27.731,27.731,0,0,1-5.672,3.86,31.511,31.511,0,0,1-6.381,2.521,29.131,29.131,0,0,1-6.854.552Zm8.587-39.391a12.141,12.141,0,0,0-4.805.946,13.944,13.944,0,0,0-3.939,2.521,17.562,17.562,0,0,0-2.994,3.7,16.712,16.712,0,0,0-2.127,4.491H259.9a48.255,48.255,0,0,0,7.248,0,19.823,19.823,0,0,0,4.806-1.34,7.175,7.175,0,0,0,2.6-2.049,5.121,5.121,0,0,0,.788-2.836,4.253,4.253,0,0,0-1.969-3.86,8.91,8.91,0,0,0-5.042-1.655Z" transform="translate(1478.004 1143.765)" fill="#59a6de"/>
      <g id="Group_38" data-name="Group 38">
        <path id="Path_3536" data-name="Path 3536" d="M526.737,293.665l-34.27-75.157a11.266,11.266,0,0,0-14.339-5.594l-51.365,20.169-167.174-16.15L124.4,349.206l195.929.552,117.148-97.61L476.4,236.863l29.937,65.625a2.763,2.763,0,0,1,.394.63,26.078,26.078,0,0,1,19.38-8.745h.945A3.885,3.885,0,0,0,526.737,293.665Z" transform="translate(677.186 290.103)" fill="url(#linear-gradient-11)"/>
        <path id="Path_3537" data-name="Path 3537" d="M202.169,224.771h-.946a28.125,28.125,0,0,0-21.271,9.533,26.627,26.627,0,0,0-6.933,17.411,27.337,27.337,0,0,0,27.652,27.179,27.731,27.731,0,0,0,28.2-27.022A27.179,27.179,0,0,0,202.169,224.771Z" transform="translate(1011.601 377.196)" fill="url(#linear-gradient-12)"/>
        <path id="Path_3538" data-name="Path 3538" d="M99.92,79.364l27.574,61.292L303.255,69.123,278.833,11.77,201.627,76.213Z" transform="translate(806.839 583.185)" fill="url(#linear-gradient-13)"/>
        <path id="Path_3539" data-name="Path 3539" d="M190.052,322.878h46.481c20.089,0,48.529-10.478,48.529-31.04V285.22L152,310.745A66.335,66.335,0,0,0,190.052,322.878Z" transform="translate(867.022 797.844)" fill="url(#linear-gradient-14)"/>
        <path id="Path_3540" data-name="Path 3540" d="M150.67,328.3a18.67,18.67,0,0,0,.63,4.8l142.909-27.73V279.85L150.67,307.66Z" transform="translate(857.874 760.623)" fill="url(#linear-gradient-15)"/>
        <path id="Exclusion_4" data-name="Exclusion 4" d="M92.74-1442.357h0V-1484.9a176.378,176.378,0,0,1-68.369-65.831A176.374,176.374,0,0,1,.014-1642.462a181.927,181.927,0,0,1,7.6-53.072,181.909,181.909,0,0,1,22.729-48.556L206.895-1812a158.379,158.379,0,0,1,48.714,23.411,169.208,169.208,0,0,1,38.654,38.256,178.312,178.312,0,0,1,25.478,49.807,186.157,186.157,0,0,1,9.185,58.064,176.46,176.46,0,0,1-24.334,91.711A176.462,176.462,0,0,1,236.28-1484.9v14.654L92.741-1442.357Zm71.692-76.208h0l12.761,9.3-3.073-16.386,11.109-8.43H169.552l-5.12-15.2-5.121,15.126H143.633l11.03,8.509-3.072,16.15,12.841-9.059Zm-52.468-14.063h0l12.841,9.374-3.073-16.544L133-1548.306l-15.835.079-5.2-15.441-5.121,15.362H91.007l11.109,8.509-3.073,16.308,12.92-9.138Zm102.495-.157h0l12.683,9.217-3.073-16.229,11.029-8.429-15.52.078-5.12-15.126-5.043,15.048H193.9l10.872,8.429L201.7-1523.8l12.762-8.981ZM73.6-1570.6h0l12.683,9.3-2.993-16.308,11.029-8.351h-15.6L73.6-1601.09l-4.964,15.047h-15.6l10.951,8.429-3.152,16.071L73.6-1570.6Zm180.41-.236h0l12.368,9.059-2.915-15.914,10.793-8.193H258.969l-4.963-14.732-4.884,14.732H233.916l10.714,8.193-2.993,15.6,12.368-8.744ZM61.7-1623.512h0l12.447,9.06-2.994-15.914,10.794-8.193H66.742l-5.042-14.81-4.884,14.731H41.532l10.715,8.273-2.993,15.677,12.446-8.823Zm205.541-.391h0l11.895,8.744-2.836-15.362,10.4-7.879-14.654.079-4.805-14.339-4.728,14.26H247.861l10.32,7.879-2.915,15.125,11.975-8.507Zm-13.235-51.252h0l12.683,9.217-3.073-16.229,11.109-8.351h-15.6l-5.121-15.125-4.964,15.047h-15.6l10.951,8.429-3.073,15.993,12.683-8.981Zm-180.41-.157h0l12.446,9.059-2.993-15.992L94-1690.517l-15.362.078-5.042-14.89-4.884,14.811H53.349l10.794,8.272-3.073,15.756,12.526-8.823Zm140.861-39.565h0l12.368,8.981-2.993-15.914L234.7-1730H219.421l-4.963-14.811L209.573-1730H194.289L205-1721.81l-2.993,15.678,12.446-8.745Zm-102.495-.469h0l11.816,8.666-2.836-15.283,10.4-7.8H116.769l-4.806-14.18-4.727,14.1H92.661l10.242,7.879-2.836,15.047,11.895-8.43Zm52.469-13.271h0l12.131,8.823-2.915-15.52,10.557-8.036h-14.89l-4.884-14.5-4.884,14.417H144.736l10.4,8.114-2.914,15.284,12.211-8.587Z" transform="translate(915.804 2492.695)" fill="url(#linear-gradient-16)"/>
      </g>
    </g>
  </g>
</svg>
